<svg xmlns="http://www.w3.org/2000/svg" viewBox="0 0 128 128" role="img" aria-label="Moldova Travel Logo">
  <defs>
    <linearGradient id="bg" x1="0" y1="0" x2="1" y2="1">
      <stop offset="0%" stop-color="#1b5c4d" />
      <stop offset="100%" stop-color="#2f846f" />
    </linearGradient>
    <linearGradient id="sun" x1="0" y1="0" x2="1" y2="1">
      <stop offset="0%" stop-color="#f6db9c" />
      <stop offset="100%" stop-color="#dfac55" />
    </linearGradient>
  </defs>

  <rect x="6" y="6" width="116" height="116" rx="28" fill="url(#bg)" />
  <circle cx="89" cy="34" r="13" fill="url(#sun)" />
  <path d="M18 84c14-15 24-23 35-23 10 0 16 5 26 15 4 5 9 8 15 8h16v18H18V84z" fill="#163b33" />
  <path d="M22 90c11-11 20-17 29-17 8 0 14 4 22 11 5 5 11 8 17 8h20v14H22V90z" fill="#0f2c26" opacity="0.85" />

  <rect x="56" y="38" width="14" height="42" rx="7" fill="#f4efe4" />
  <rect x="54" y="32" width="18" height="8" rx="4" fill="#d8c6a4" />
  <ellipse cx="63" cy="82" rx="18" ry="7" fill="#f3c76c" opacity="0.94" />
</svg>
